<svg width="174" height="70" viewBox="0 0 174 70" fill="none" xmlns="http://www.w3.org/2000/svg">
<path d="M104.922 35.3005C104.1 35.3005 103.319 35.1803 102.578 34.9399C101.856 34.6794 101.215 34.3188 100.654 33.858C100.093 33.3771 99.6624 32.8261 99.3618 32.205H99.8427V35H97.4985V29.2298H99.6323C99.7725 30.0112 100.053 30.7024 100.474 31.3034C100.915 31.9045 101.486 32.3854 102.187 32.746C102.888 33.0866 103.7 33.2569 104.621 33.2569C105.543 33.2569 106.264 33.0365 106.785 32.5957C107.326 32.155 107.596 31.5238 107.596 30.7024C107.596 30.0412 107.476 29.5303 107.236 29.1697C106.995 28.789 106.605 28.4885 106.064 28.2681C105.523 28.0477 104.791 27.8674 103.87 27.7271L102.818 27.5167C101.135 27.2162 99.8026 26.6552 98.8209 25.8338C97.8592 25.0123 97.3783 23.8703 97.3783 22.4077C97.3783 21.4059 97.5987 20.5544 98.0395 19.8532C98.5003 19.1319 99.1414 18.5809 99.9629 18.2002C100.784 17.8196 101.746 17.6292 102.848 17.6292C104.07 17.6292 105.142 17.8897 106.064 18.4106C106.985 18.9115 107.647 19.6127 108.047 20.5143H107.416V17.9598H109.67V22.8284H107.596C107.476 22.3676 107.266 21.8968 106.965 21.4159C106.685 20.915 106.254 20.5043 105.673 20.1837C105.092 19.8431 104.291 19.6728 103.269 19.6728C102.347 19.6728 101.626 19.8932 101.105 20.334C100.604 20.7748 100.354 21.3458 100.354 22.047C100.354 22.8284 100.644 23.4295 101.225 23.8502C101.826 24.271 102.708 24.5916 103.87 24.8119L104.651 24.9622C105.974 25.1826 107.065 25.4932 107.927 25.8939C108.789 26.2946 109.43 26.8456 109.85 27.5468C110.271 28.228 110.482 29.1096 110.482 30.1915C110.482 31.1532 110.261 32.0147 109.82 32.7761C109.38 33.5374 108.748 34.1485 107.927 34.6093C107.106 35.0701 106.104 35.3005 104.922 35.3005ZM112.976 35V33.0165H115.17V19.8832H112.976V17.9598H120.52V19.8832H118.326V33.0165H124.757V27.9675H127.101V35H112.976ZM129.389 35V33.0165H131.553V19.9433H129.389V17.9598H136.932V19.9433H134.738V33.0165H136.932V35H129.389ZM139.685 35V33.0165H141.818V19.9433H139.685V17.9598H146.176L151.255 29.1396L156.094 17.9598H162.555V19.9433H160.451V33.0165H162.555V35H155.372V33.0165H157.416V20.6646L151.465 34.1886H150.293L144.253 20.6646V33.0165H146.296V35H139.685Z" fill="white"/>
<path d="M102.184 61.3951V59.698H104.087V48.5128H100.487V51.9841H98.584V46.8157H112.238V51.9841H110.335V48.5128H106.786V59.698H108.689V61.3951H102.184ZM113.961 61.3951V59.698H115.838V48.5128H113.961V46.8157H126.972V51.3412H125.044V48.5128H118.538V53.0126H122.447V51.3927H123.809V56.381H122.447V54.7097H118.538V59.6723H125.172V56.741H127.075V61.3951H113.961ZM137.35 61.678C136.184 61.678 135.121 61.498 134.161 61.138C133.218 60.7609 132.396 60.2466 131.693 59.5952C130.99 58.9266 130.45 58.1295 130.073 57.2039C129.713 56.2782 129.533 55.2411 129.533 54.0926C129.533 52.6183 129.85 51.3155 130.484 50.1841C131.136 49.0356 132.036 48.1442 133.184 47.51C134.333 46.8757 135.678 46.5586 137.221 46.5586C138.198 46.5586 139.064 46.7043 139.818 46.9957C140.59 47.2871 141.224 47.6985 141.721 48.2299C142.235 48.7613 142.604 49.3785 142.827 50.0813L142.132 49.8756V46.8157H144.035V51.4441L142.364 51.4698C141.849 50.4241 141.198 49.6699 140.41 49.207C139.638 48.7271 138.704 48.4871 137.607 48.4871C136.51 48.4871 135.558 48.7356 134.753 49.2328C133.964 49.7127 133.356 50.3727 132.927 51.2127C132.498 52.0526 132.284 53.004 132.284 54.0668C132.284 54.9239 132.413 55.7039 132.67 56.4067C132.927 57.0924 133.287 57.6838 133.75 58.181C134.23 58.6781 134.787 59.0638 135.421 59.3381C136.055 59.6123 136.75 59.7495 137.504 59.7495C138.224 59.7495 138.892 59.638 139.51 59.4152C140.144 59.1752 140.701 58.8066 141.181 58.3095C141.678 57.7953 142.055 57.1353 142.312 56.3296L144.369 57.2039C144.009 58.2495 143.487 59.1066 142.801 59.7752C142.115 60.4266 141.301 60.9066 140.358 61.2151C139.432 61.5065 138.43 61.6608 137.35 61.678ZM146.856 61.3951V59.698H148.733V48.5128H146.856V46.8157H153.31V48.5128H151.433V53.064H158.453V48.5128H156.576V46.8157H163.03V48.5128H161.153V59.698H163.03V61.3951H156.576V59.698H158.453V54.7868H151.433V59.698H153.31V61.3951H146.856Z" fill="#41B5E6"/>
<path fill-rule="evenodd" clip-rule="evenodd" d="M40.0299 41.8184C39.6553 41.452 39.0565 41.452 38.6819 41.8184L25.1188 55.084C24.7322 55.4621 24.7322 56.0842 25.1188 56.4623L38.6819 69.7279C39.0565 70.0944 39.6553 70.0944 40.0299 69.7279L53.593 56.4623C53.9796 56.0842 53.9796 55.4621 53.593 55.084L40.0299 41.8184ZM50.4417 55.82L39.3559 44.9774L28.2701 55.82L39.3559 66.6627L50.4417 55.82Z" fill="#0994CF"/>
<path fill-rule="evenodd" clip-rule="evenodd" d="M19.208 21.0092C18.8333 20.6428 18.2346 20.6428 17.8599 21.0092L4.29684 34.2748C3.91025 34.6529 3.91025 35.275 4.29684 35.6531L17.8599 48.9187C18.2346 49.2851 18.8333 49.2851 19.208 48.9187L32.771 35.6531C33.1576 35.275 33.1576 34.6529 32.771 34.2748L19.208 21.0092ZM29.6197 35.0108L18.5339 24.1682L7.44815 35.0108L18.5339 45.8535L29.6197 35.0108Z" fill="#0994CF"/>
<path fill-rule="evenodd" clip-rule="evenodd" d="M60.1402 21.2722C59.7655 20.9058 59.1667 20.9058 58.7921 21.2722L45.229 34.5378C44.8424 34.9159 44.8424 35.538 45.229 35.9161L58.7921 49.1817C59.1667 49.5481 59.7655 49.5481 60.1402 49.1817L73.7032 35.9161C74.0898 35.538 74.0898 34.9159 73.7032 34.5378L60.1402 21.2722ZM70.5519 35.2738L59.4661 24.4312L48.3803 35.2738L59.4661 46.1165L70.5519 35.2738Z" fill="#0994CF"/>
<path fill-rule="evenodd" clip-rule="evenodd" d="M39.7037 0.272112C39.3291 -0.0943253 38.7303 -0.0943253 38.3556 0.272112L24.7926 13.5377C24.406 13.9158 24.406 14.5379 24.7926 14.916L38.3556 28.1816C38.7303 28.548 39.3291 28.548 39.7037 28.1816L53.2668 14.916C53.6534 14.5379 53.6534 13.9158 53.2668 13.5377L39.7037 0.272112ZM50.1155 14.2737L39.0297 3.43106L27.9439 14.2737L39.0297 25.1163L50.1155 14.2737Z" fill="#0994CF"/>
</svg>
